#!OML:ASF E:\pregnant2\Project 1\Capture day 1\Session 1\pregnant2.ASF
:FULLY-SPECIFIED
:DEGREES
2044
root 9.2529 13.4689 21.1612 75.249 -0.118906 0.408098
lowerback -42.2065 1.77352 2.47959
upperback -13.4268 1.26367 -0.713032
thorax 5.09719 0.51152 -1.53763
lowerneck -15.6307 7.50799 6.36325
upperneck 21.017 10.732 -7.94982
head 10.0611 4.60375 -2.36126
rclavicle 2.98177e-015 1.03368e-014
rhumerus -77.8454 24.1929 -94.7114
rradius 67.765
rwrist 18.7209
rhand -51.2783 -64.1115
rfingers 7.12502
rthumb -23.8155 -267.345
lclavicle 2.98177e-015 1.03368e-014
lhumerus -76.3623 -33.4849 100.999
lradius 68.9012
lwrist -9.08651
lhand -50.4983 55.8245
lfingers 7.12502
lthumb -23.0673 84.4639
rfemur -132.792 -0.104997 26.6441
rtibia 68.6288
rfoot -9.80773 -5.49645
rtoes 3.37368
lfemur -132.073 -2.47677 -19.2657
ltibia 67.9261
lfoot -12.2772 5.85495
ltoes -18.5439
2045
root 9.25251 13.439 21.1386 75.0052 -0.101529 0.42354
lowerback -41.8554 1.794 2.49511
upperback -13.4437 1.29517 -0.705741
thorax 4.98041 0.527102 -1.53008
lowerneck -15.6425 7.59906 6.42923
upperneck 20.5642 10.805 -7.95939
head 9.91266 4.65173 -2.36343
rclavicle 7.7526e-015 -6.36111e-015
rhumerus -78.4805 24.2491 -94.7479
rradius 68.6437
rwrist 18.6816
rhand -51.3098 -63.9802
rfingers 7.12502
rthumb -23.8457 -267.48
lclavicle 7.7526e-015 -6.36111e-015
lhumerus -76.9169 -33.6949 101.193
lradius 69.6798
lwrist -8.94642
lhand -50.5083 55.6175
lfingers 7.12502
lthumb -23.0769 84.2557
rfemur -132.876 -0.120611 26.7474
rtibia 68.9866
rfoot -9.84352 -5.45473
rtoes 3.36468
lfemur -132.15 -2.5066 -19.3421
ltibia 68.2602
lfoot -12.2369 5.77241
ltoes -18.4619
2046
root 9.252 13.4082 21.116 74.7765 -0.0846299 0.432172
lowerback -41.5241 1.8144 2.51413
upperback -13.4598 1.32417 -0.695009
thorax 4.86881 0.5414 -1.52165
lowerneck -15.6561 7.69522 6.50309
upperneck 20.1312 10.8869 -7.97756
head 9.77426 4.70288 -2.36879
rclavicle 5.26779e-015 5.96354e-015
rhumerus -79.1247 24.319 -94.7846
rradius 69.5626
rwrist 18.6244
rhand -51.3491 -63.7858
rfingers 7.12502
rthumb -23.8835 -267.679
lclavicle 5.26779e-015 5.96354e-015
lhumerus -77.4812 -33.899 101.385
lradius 70.4909
lwrist -8.81999
lhand -50.5139 55.3743
lfingers 7.12502
lthumb -23.0823 84.0118
rfemur -132.975 -0.126349 26.8547
rtibia 69.3424
rfoot -9.87476 -5.4102
rtoes 3.35806
lfemur -132.244 -2.52861 -19.4168
ltibia 68.5957
lfoot -12.1936 5.68847
ltoes -18.4488
2047
root 9.25116 13.3767 21.0937 74.5614 -0.0751488 0.441657
lowerback -41.2151 1.8266 2.52088
upperback -13.4732 1.3466 -0.67855
thorax 4.76516 0.553051 -1.50328
lowerneck -15.6644 7.79569 6.5867
upperneck 19.71 10.9777 -8.01247
head 9.64229 4.75688 -2.38062
rclavicle -1.19271e-015 1.98785e-015
rhumerus -79.775 24.412 -94.8267
rradius 70.5127
rwrist 18.5539
rhand -51.3766 -63.5386
rfingers 7.12502
rthumb -23.9098 -267.93
lclavicle -1.19271e-015 1.98785e-015
lhumerus -78.0468 -34.0989 101.578
lradius 71.3167
lwrist -8.69281
lhand -50.514 55.1106
lfingers 7.12502
lthumb -23.0823 83.7481
rfemur -133.091 -0.129183 26.952
rtibia 69.6976
rfoot -9.90006 -5.36647
rtoes 3.35116
lfemur -132.348 -2.54985 -19.5005
ltibia 68.9326
lfoot -12.157 5.6063
ltoes -18.4811
2048
root 9.25009 13.3447 21.0713 74.3545 -0.0670804 0.448588
lowerback -40.9178 1.83488 2.52486
upperback -13.4879 1.36435 -0.656943
thorax 4.6622 0.56259 -1.47985
lowerneck -15.6599 7.90059 6.6815
upperneck 19.3035 11.0773 -8.06241
head 9.51628 4.81418 -2.39871
rclavicle 9.64106e-015 -1.59028e-015
rhumerus -80.4373 24.5329 -94.8888
rradius 71.4779
rwrist 18.473
rhand -51.3865 -63.2525
rfingers 7.12502
rthumb -23.9193 -268.217
lclavicle 9.64106e-015 -1.59028e-015
lhumerus -78.6153 -34.2906 101.769
lradius 72.1562
lwrist -8.56498
lhand -50.5039 54.8435
lfingers 7.12502
lthumb -23.0727 83.4822
rfemur -133.217 -0.126853 27.0465
rtibia 70.0508
rfoot -9.91808 -5.32378
rtoes 3.3375
lfemur -132.458 -2.56795 -19.5867
ltibia 69.2716
lfoot -12.1259 5.52701
ltoes -18.5521
2049
root 9.24882 13.3124 21.0482 74.1409 -0.0561282 0.451989
lowerback -40.6104 1.83996 2.53004
upperback -13.5027 1.3774 -0.629284
thorax 4.555 0.569945 -1.45271
lowerneck -15.6497 8.00963 6.78095
upperneck 18.9156 11.1848 -8.11943
head 9.39787 4.8745 -2.41912
rclavicle -7.55382e-015 -3.18055e-015
rhumerus -81.1047 24.6882 -94.977
rradius 72.4431
rwrist 18.3812
rhand -51.364 -62.9498
rfingers 7.12502
rthumb -23.8978 -268.517
lclavicle -7.55382e-015 -3.18055e-015
lhumerus -79.193 -34.4913 101.971
lradius 73.0017
lwrist -8.41863
lhand -50.4836 54.6115
lfingers 7.12502
lthumb -23.0532 83.2526
rfemur -133.339 -0.121091 27.1405
rtibia 70.4017
rfoot -9.92889 -5.28333
rtoes 3.31316
lfemur -132.565 -2.58186 -19.6698
ltibia 69.6134
lfoot -12.0999 5.4463
ltoes -18.6372
2050
root 9.24751 13.2799 21.0244 73.9243 -0.0376174 0.445492
lowerback -40.2997 1.84829 2.54816
upperback -13.5188 1.38924 -0.597307
thorax 4.44441 0.576333 -1.42835
lowerneck -15.6324 8.12167 6.88197
upperneck 18.5489 11.2979 -8.17507
head 9.28666 4.93734 -2.43883
rclavicle 2.88238e-015 -1.11319e-014
rhumerus -81.7788 24.8789 -95.0972
rradius 73.401
rwrist 18.2764
rhand -51.3187 -62.6562
rfingers 7.12502
rthumb -23.8542 -268.805
lclavicle 2.88238e-015 -1.11319e-014
lhumerus -79.796 -34.7094 102.196
lradius 73.8498
lwrist -8.24334
lhand -50.4614 54.4196
lfingers 7.12502
lthumb -23.0318 83.0634
rfemur -133.457 -0.105674 27.2443
rtibia 70.7475
rfoot -9.93376 -5.24217
rtoes 3.27081
lfemur -132.675 -2.58556 -19.7398
ltibia 69.9585
lfoot -12.0771 5.36619
ltoes -18.7121
